<svg width="142" height="22" viewBox="0 0 142 22" fill="none" xmlns="http://www.w3.org/2000/svg">
<path d="M0 0.748535V6.13249H5.4157V21.2678H11.8002V6.13249H17.2635V0.748535H0Z" fill="#FEFEFE"/>
<path d="M97.8159 10.5311C96.4145 9.45188 94.7848 8.70762 93.0514 8.3553C92.509 8.21597 91.9781 8.03551 91.4632 7.81538C91.0016 7.67155 90.5892 7.40201 90.2721 7.03709C90.1941 6.9164 90.1527 6.77577 90.1527 6.63209C90.1527 6.48842 90.1941 6.34788 90.2721 6.22719C90.3556 6.09155 90.4666 5.97478 90.5979 5.88453C90.7291 5.79428 90.8778 5.7325 91.0344 5.70307C91.4176 5.63194 91.8106 5.63194 92.1938 5.70307C92.584 5.78049 92.9666 5.89203 93.3373 6.03652C94.1958 6.38642 95.0111 6.83411 95.7672 7.37064L96.4183 7.81538L99.4835 3.36839L98.9118 2.90785C96.7442 1.16577 94.0373 0.233558 91.2567 0.271512V0.271512C89.3127 0.224167 87.4134 0.85904 85.8887 2.06607C85.1983 2.65166 84.6454 3.38223 84.2694 4.20571C83.8933 5.0292 83.7033 5.92537 83.7129 6.83061V6.97359C83.6606 7.84465 83.8196 8.71545 84.1763 9.51183C84.533 10.3082 85.0769 11.0066 85.7616 11.5476C87.2566 12.5575 88.9432 13.2494 90.7168 13.5804C91.2633 13.6831 91.7962 13.8484 92.3049 14.0728C92.7814 14.2952 93.369 14.708 93.369 15.2957C93.3682 15.4342 93.3311 15.5702 93.2614 15.69C93.1918 15.8098 93.092 15.9093 92.972 15.9786C92.4819 16.2309 91.9345 16.3513 91.3838 16.328C89.6681 16.1294 88.0659 15.3702 86.8257 14.1681L86.2222 13.6758L82.5059 17.9479L83.0776 18.4561C85.4839 20.594 88.5938 21.7702 91.8126 21.7596C93.8239 21.8371 95.8015 21.2265 97.4189 20.0285C98.157 19.4143 98.7463 18.6406 99.1424 17.7658C99.5385 16.8911 99.7312 15.9379 99.7059 14.978V14.8669C99.7358 14.0488 99.5815 13.2343 99.2544 12.4839C98.9273 11.7334 98.4357 11.066 97.8159 10.5311" fill="#FEFEFE"/>
<path d="M74.5809 0.748535V9.99176L67.5611 0.748535H62.5742V21.2678H68.9428V11.6593L76.2643 21.2678H80.9654V0.748535H74.5809Z" fill="#FEFEFE"/>
<path d="M37.1957 21.2671L33.5429 13.8344C34.3122 13.4202 34.99 12.855 35.5357 12.1728C36.0815 11.4906 36.4841 10.7053 36.7193 9.86393C36.8733 9.2136 36.948 8.547 36.9416 7.87871V7.78342C36.9718 6.89171 36.8245 6.00289 36.5082 5.1686C36.192 4.33431 35.7131 3.5712 35.0993 2.92359C34.2799 2.17736 33.3199 1.60197 32.2755 1.2311C31.231 0.860236 30.1232 0.701366 29.0166 0.763681H19.5352V21.283H25.8879V15.2161H27.1584L30.0966 21.2671H37.1957ZM25.9038 6.05226H28.0161C28.6935 6.02138 29.3641 6.19875 29.9378 6.56049C30.1448 6.74668 30.3057 6.97857 30.4077 7.23767C30.5097 7.49678 30.55 7.77601 30.5254 8.05338C30.5348 8.30889 30.4886 8.56345 30.3899 8.7993C30.2911 9.03515 30.1423 9.24661 29.9536 9.4192C29.4125 9.8165 28.7499 10.0131 28.0796 9.97512H25.9038V6.05226Z" fill="#FEFEFE"/>
<path d="M100.724 0.76416V5.38573H108.807V21.2834H113.89V5.35393H120.306L129.883 21.8393L142 0.76416H136.521L129.883 12.6278L123.053 0.76416H100.724Z" fill="#FEFEFE"/>
<path d="M41.7061 14.2319L45.7559 7.19629L49.8217 14.2319H41.7061Z" fill="#0A7A3E"/>
<path d="M49.8213 14.2319L53.887 7.19629L57.9528 14.2319H49.8213Z" fill="#184787"/>
<path d="M57.9528 14.2314L53.887 21.283L49.8213 14.2314H57.9528Z" fill="#AA217D"/>
<path d="M53.8877 21.283L57.9534 14.2314L62.0192 21.283H53.8877Z" fill="#D2157B"/>
<path d="M43.7227 17.7572L49.8213 14.2314L45.7555 21.283L43.7227 17.7572Z" fill="#C9D22C"/>
<path d="M43.7234 17.7578L37.6406 21.2836H45.7562L43.7234 17.7578Z" fill="#FEE146"/>
<path d="M43.7231 17.7572L49.8217 14.2314H41.7061L43.7231 17.7572Z" fill="#78AE42"/>
<path d="M43.7234 17.7572L37.6406 21.283L41.7064 14.2314L43.7234 17.7572Z" fill="#F9BB16"/>
<path d="M49.8213 7.19628V0.160645L53.887 7.19628H49.8213Z" fill="#184787"/>
<path d="M49.8213 7.19629V14.2319L53.887 7.19629H49.8213Z" fill="#0156A0"/>
<path d="M49.8216 7.19628V0.160645L45.7559 7.19628H49.8216Z" fill="#0156A0"/>
<path d="M49.8216 7.19629V14.2319L45.7559 7.19629H49.8216Z" fill="#0672BA"/>
</svg>
